<?xml version="1.0" encoding="utf-8"?>
<!-- Generator: Adobe Illustrator 19.0.0, SVG Export Plug-In . SVG Version: 6.00 Build 0)  -->
<svg version="1.1" id="Layer_1" xmlns="http://www.w3.org/2000/svg" xmlns:xlink="http://www.w3.org/1999/xlink" x="0px" y="0px"
	 viewBox="0 0 455.1 125.1" style="enable-background:new 0 0 455.1 125.1;" xml:space="preserve">
<style type="text/css">
	.st0{fill:#F9F9FA;}
</style>
<g>
	<g>
		<g>
			<path class="st0" d="M170.4,63.4c4.5,1.2,6.7,3.6,6.7,7v15.3c0,6.1-3.1,9.1-9.3,9.1h-16.4V33.6h14c7.3,0,10.9,3.7,10.9,11.1v11.7
				c0,3.5-2,5.7-5.9,6.5V63.4z M159.6,59.4h3.8c3.1,0,4.7-1.5,4.7-4.4v-9.5c0-3-1.2-4.4-3.7-4.4h-4.9V59.4z M159.6,87.4h6.1
				c2.2,0,3.2-0.9,3.2-2.6V71.2c0-2.9-1.6-4.3-4.9-4.3h-4.5V87.4z"/>
			<path class="st0" d="M209.4,94.8V33.6h20.3v7.4h-12.1v18.6h10.7V67h-10.7v20.3h12.1v7.4H209.4z"/>
			<path class="st0" d="M261.1,94.8V33.6h14.2c7.7,0,11.5,3.9,11.5,11.7v40.5c0,5.9-3.3,8.9-9.8,8.9H261.1z M269.3,87.4h6.1
				c2.2,0,3.2-0.9,3.2-2.7V45.5c0-3-1.2-4.4-3.7-4.4h-5.7V87.4z"/>
			<path class="st0" d="M319.6,94.8V33.6h14.2c7.7,0,11.5,3.9,11.5,11.7v40.5c0,5.9-3.3,8.9-9.8,8.9H319.6z M327.8,87.4h6.1
				c2.2,0,3.2-0.9,3.2-2.7V45.5c0-3-1.2-4.4-3.7-4.4h-5.7V87.4z"/>
			<path class="st0" d="M378.1,94.8V33.6h20.3v7.4h-12.1v18.6H397V67h-10.7v20.3h12.1v7.4H378.1z"/>
			<path class="st0" d="M429.8,33.6h16c6.2,0,9.4,3.5,9.4,10.5v15.1c0,5.3-1.6,8.7-4.9,10.1l5.7,25.5h-7.7l-5.4-24.7H438v24.7h-8.2
				V33.6z M438,63.1h5.4c2.4,0,3.7-1.5,3.7-4.4V45.5c0-3-1.2-4.4-3.7-4.4H438V63.1z"/>
		</g>
		<g>
			<path class="st0" d="M56.7,125.1c-3.3,0-6.5-0.8-9.4-2.5L9.4,100.7C3.6,97.4,0,91.1,0,84.4V40.7c0-6.7,3.6-13,9.4-16.4L47.3,2.5
				c5.8-3.4,13.1-3.4,18.9,0L104,24.3c5.8,3.4,9.4,9.6,9.4,16.4v43.7c0,6.7-3.6,13-9.4,16.4l-37.8,21.8
				C63.2,124.2,60,125.1,56.7,125.1z M56.7,2.2c-2.9,0-5.8,0.7-8.4,2.2L10.5,26.2c-5.2,3-8.4,8.5-8.4,14.5v43.7
				c0,6,3.2,11.5,8.4,14.5l37.8,21.8c5.2,3,11.6,3,16.7,0l37.8-21.8c5.2-3,8.4-8.5,8.4-14.5V40.7c0-6-3.2-11.5-8.4-14.5L65.1,4.4
				C62.5,2.9,59.6,2.2,56.7,2.2z"/>
		</g>
	</g>
	<path class="st0" d="M74.4,60.6c6.8-1.8,11.1-7.3,11.1-14c0-9.9-9.3-16.3-23.9-16.3H31v40.3c2.5-0.6,5.7-1.3,9.4-2.4
		c-2.6-8.3,0.2-17.8,7.4-23.2c5.2-3.8,11.5-4.9,17.3-3.5c-2.5,0.6-5,1.8-7.1,3.6c-5.4,4.6-7.1,12.3-4.6,18.7
		c3.9-1.5,7.9-3.3,11.8-5.3l0.3,0.2c0,0-4.4,2.9-10.4,8.3c5.3,7.8,16,9.7,23.5,4.2c0.2-0.1,0.3-0.3,0.5-0.4c-1.5,3.1-3.7,5.8-6.6,8
		c-8.5,6.1-20,5-27.1-2.2c-4.7,5.1-9.6,11.2-13.9,18.2h31.2c15.2,0,24.8-6.9,24.8-17.9C87.6,68.6,82.6,62.2,74.4,60.6z M69.2,41.6
		l0.7-2.3l0.7,2.3h2.4L71.1,43l0.7,2.3L70,43.9L68,45.3l0.7-2.3l-1.9-1.4H69.2z M71.3,53.1c-0.1,0.1-0.2,0.1-0.3,0.2
		c-0.5,0.3-1,0.7-1.5,1c0,0,0,0-0.1,0c-0.7-0.3-1.4-0.6-2-0.9c0,0-0.1,0-0.1-0.1c0-0.1,0-0.1,0.1-0.1c0.2-0.2,0.5-0.3,0.7-0.5
		c0,0,0.1,0,0.1,0c0.2,0,0.3,0,0.5,0C69.5,52.8,70.4,53,71.3,53.1C71.2,53.1,71.2,53.1,71.3,53.1z M74,54.3
		c-0.3,1.8-0.6,3.5-0.9,5.3c0,0.1-0.1,0.2-0.1,0.3c0,0,0,0,0,0c-0.3,0.2-0.5,0.4-0.8,0.5c0,0,0,0-0.1,0c0,0-0.1,0-0.1,0
		c0,0,0-0.1,0-0.1c0-0.2,0-0.5-0.1-0.7c0-0.2,0-0.4,0-0.7c0-0.2,0-0.4,0-0.7c0-0.2,0-0.4,0-0.7c0-0.2,0-0.4,0-0.7c0-0.2,0-0.4,0-0.7
		c0-0.1,0-0.2,0-0.4c0,0-0.1,0.1-0.1,0.1c-0.3,0.2-0.5,0.4-0.8,0.5c-0.4,0.3-0.8,0.5-1.3,0.7c-0.3,0.1-0.6,0.3-1,0.4
		c-0.2,0.1-0.4,0.1-0.7,0.2c-0.1,0-0.2,0-0.3,0c-0.1,0-0.1,0-0.2-0.1c-0.5-0.3-0.9-0.6-1.3-0.9c-0.3-0.2-0.6-0.5-0.9-0.7
		c0,0,0,0,0,0c0,0,0,0,0,0c0.1-0.1,0.3-0.2,0.4-0.3c0,0,0.1,0,0.1,0c0.8,0.1,1.5,0.2,2.3,0.3c0,0,0.1,0,0.1,0
		c2.2-1.5,4.3-3.1,6.5-4.6c0.2-0.1,0.4-0.2,0.7-0.3c0.1,0,0.3-0.1,0.4-0.1c0.3,0,0.6,0,0.9,0c0.2,0.1,0.3,0.2,0.4,0.4
		c0,0.1,0,0.2,0,0.4c-0.1,0.3-0.2,0.5-0.4,0.7c-0.2,0.2-0.4,0.3-0.6,0.4C75.2,53.4,74.6,53.8,74,54.3C74,54.3,74,54.3,74,54.3z"/>
</g>
</svg>
