<?xml version="1.0" standalone="no"?>
<!DOCTYPE svg PUBLIC "-//W3C//DTD SVG 20010904//EN"
 "http://www.w3.org/TR/2001/REC-SVG-20010904/DTD/svg10.dtd">
<svg version="1.0" xmlns="http://www.w3.org/2000/svg"
 width="100.000000pt" height="100.000000pt" viewBox="0 0 100.000000 100.000000"
 preserveAspectRatio="xMidYMid meet">
<metadata>
Created by potrace 1.11, written by Peter Selinger 2001-2013
</metadata>
<g transform="translate(0.000000,100.000000) scale(0.100000,-0.100000)"
fill="#000000" stroke="none">
<path d="M345 805 c-71 -41 -142 -89 -157 -105 l-28 -30 0 -168 c0 -181 7
-207 61 -236 13 -8 76 -43 139 -80 73 -42 126 -66 146 -66 26 0 167 73 290
150 48 30 54 57 54 232 0 196 0 197 -99 253 -20 11 -73 42 -119 68 -123 73
-132 72 -287 -18z m237 29 c21 -13 39 -24 42 -24 2 0 33 -17 67 -38 35 -21 75
-43 89 -50 49 -25 54 -45 56 -212 1 -114 -2 -163 -12 -185 -18 -39 -266 -187
-317 -188 -35 -1 -245 114 -302 164 l-30 27 0 170 c0 153 2 173 19 191 18 20
189 124 266 162 41 21 70 16 122 -17z"/>
<path d="M350 572 c0 -109 2 -123 16 -118 9 3 22 6 30 6 10 0 12 8 8 29 -7 35
20 96 51 117 11 7 37 17 56 21 l34 6 -33 -33 c-27 -27 -33 -39 -30 -69 3 -36
7 -39 43 -25 16 6 15 3 -5 -13 -21 -18 -22 -23 -11 -37 18 -22 71 -35 99 -25
34 13 27 -7 -12 -30 -40 -25 -103 -27 -136 -4 -23 16 -24 16 -62 -28 -21 -24
-38 -49 -38 -56 0 -18 237 -11 275 9 74 39 76 155 4 180 -10 4 -7 12 14 31 45
43 37 103 -20 138 -30 19 -51 22 -159 24 l-124 2 0 -125z m250 54 c0 -3 -4 -8
-10 -11 -5 -3 -10 -1 -10 4 0 6 5 11 10 11 6 0 10 -2 10 -4z m15 -77 c-3 -8
-17 -16 -31 -17 -20 -1 -22 0 -12 12 7 8 16 12 20 10 4 -2 10 1 13 7 9 14 17
5 10 -12z"/>
</g>
</svg>
